<?xml version="1.0" encoding="UTF-8"?>
<svg id="_Шар_1" data-name="Шар 1" xmlns="http://www.w3.org/2000/svg" version="1.1" viewBox="0 0 640 512">
  <defs>
    <style>
      .cls-1 {
        fill: #fff;
        stroke-width: 0px;
      }
    </style>
  </defs>
  <path class="cls-1" d="M392.8,1.2c-17-4.9-34.7,5-39.6,22l-128,448c-4.9,17,5,34.7,22,39.6s34.7-5,39.6-22L414.8,40.8c4.9-17-5-34.7-22-39.6h0ZM473.4,121.3c-12.5,12.5-12.5,32.8,0,45.3l89.3,89.4-89.4,89.4c-12.5,12.5-12.5,32.8,0,45.3s32.8,12.5,45.3,0l112-112c12.5-12.5,12.5-32.8,0-45.3l-112-112c-12.5-12.5-32.8-12.5-45.3,0h0ZM166.7,121.3c-12.5-12.5-32.8-12.5-45.3,0L9.4,233.3c-12.5,12.5-12.5,32.8,0,45.3l112,112c12.5,12.5,32.8,12.5,45.3,0s12.5-32.8,0-45.3l-89.4-89.3,89.4-89.4c12.5-12.5,12.5-32.8,0-45.3h0Z"/>
</svg>