<?xml version="1.0" encoding="UTF-8"?>
<svg id="_Шар_1" data-name=" Шар 1" xmlns="http://www.w3.org/2000/svg" version="1.1" viewBox="0 0 128 128">
  <defs>
    <style>
      .cls-1, .cls-2 {
        fill: #000;
        stroke-width: 0px;
      }

      .cls-3 {
        display: none;
      }

      .cls-2 {
        isolation: isolate;
        opacity: .2;
      }
    </style>
  </defs>
  <g id="_1_Chip" data-name=" 1 Chip">
    <g>
      <path class="cls-1" d="M91.4,114.3c0-5.9-3.8-11-9.1-12.9v-14.5h18.3v-9.1h13.7v-9.1h-13.7v-9.1h13.7v-9.1h-13.7v-9.1h-18.3v-22.9h9.9c1.9,5.4,7,9.1,12.9,9.1s13.7-6.2,13.7-13.7S112.7,0,105.1,0s-11,3.8-12.9,9.1h-19.1v32h-9.1V9.1h-19.1c-1.9-5.4-7-9.1-12.9-9.1s-13.7,6.2-13.7,13.7,6.2,13.7,13.7,13.7,11-3.8,12.9-9.1h9.9v22.9h-18.3v9.1h-13.7v9.1h13.7v9.1h-13.7v9.1h13.7v9.1h18.3v9.1h-19.1c-1.9-5.4-7-9.1-12.9-9.1s-13.7,6.2-13.7,13.7,6.2,13.7,13.7,13.7,11-3.8,12.9-9.1h28.2v-18.3h9.1v14.5c-5.4,1.9-9.1,7-9.1,12.9s6.2,13.7,13.7,13.7,13.7-6.2,13.7-13.7v.2ZM100.6,13.7c0-2.5,2.1-4.6,4.6-4.6s4.6,2.1,4.6,4.6-2.1,4.6-4.6,4.6-4.6-2.1-4.6-4.6ZM27.4,13.7c0-2.5,2.1-4.6,4.6-4.6s4.6,2.1,4.6,4.6-2.1,4.6-4.6,4.6-4.6-2.1-4.6-4.6ZM45.7,77.7v-27.4h45.7v27.4h-45.7ZM27.4,100.6c0,2.5-2.1,4.6-4.6,4.6s-4.6-2.1-4.6-4.6,2.1-4.6,4.6-4.6,4.6,2.1,4.6,4.6ZM73.1,114.3c0-2.5,2.1-4.6,4.6-4.6s4.6,2.1,4.6,4.6-2.1,4.6-4.6,4.6-4.6-2.1-4.6-4.6Z"/>
      <rect class="cls-1" x="54.9" y="54.9" width="9.1" height="9.1"/>
    </g>
  </g>
  <g id="Guide" class="cls-3">
    <path class="cls-2" d="M120,8v112H8V8h112M128,0H0v128h128V0h0Z"/>
  </g>
</svg>